<?xml version="1.0" standalone="no"?>
<!DOCTYPE svg PUBLIC "-//W3C//DTD SVG 20010904//EN"
 "http://www.w3.org/TR/2001/REC-SVG-20010904/DTD/svg10.dtd">
<svg version="1.0" xmlns="http://www.w3.org/2000/svg"
 width="700.000000pt" height="700.000000pt" viewBox="0 0 700.000000 700.000000"
 preserveAspectRatio="xMidYMid meet">
<metadata>
Created by potrace 1.11, written by Peter Selinger 2001-2013
</metadata>
<g transform="translate(0.000000,700.000000) scale(0.100000,-0.100000)"
fill="#000000" stroke="none">
<path d="M2323 6979 c-105 -40 -173 -136 -181 -255 -8 -128 50 -219 182 -284
54 -27 88 -50 99 -69 27 -47 127 -362 126 -400 -1 -68 -22 -88 -194 -175 -88
-44 -206 -112 -263 -149 -57 -38 -106 -66 -110 -63 -3 4 -6 39 -6 79 -1 64 -5
77 -33 119 -56 80 -155 111 -247 77 -61 -23 -101 -60 -121 -113 -23 -60 -24
-95 -4 -150 32 -88 98 -137 188 -142 31 -1 58 -3 61 -3 3 -1 -43 -48 -102
-106 -161 -157 -293 -322 -403 -503 -61 -99 -59 -99 -317 29 l-217 109 -11 42
c-28 104 -35 125 -54 153 -55 85 -139 129 -241 129 -306 0 -402 -403 -130
-547 63 -34 191 -31 267 6 31 15 62 27 67 27 18 0 421 -204 442 -223 27 -25
24 -51 -22 -173 -23 -60 -42 -116 -44 -124 -2 -8 -11 -42 -21 -75 -10 -33 -19
-66 -20 -74 -2 -8 -10 -46 -18 -85 -9 -39 -17 -81 -19 -94 -7 -46 -24 -47 -64
-2 -50 56 -103 82 -167 82 -163 2 -264 -176 -181 -318 68 -116 225 -139 324
-46 19 18 39 34 44 35 4 1 10 -95 12 -213 2 -118 5 -224 8 -235 3 -12 8 -48
12 -80 4 -33 9 -69 11 -80 2 -11 7 -33 10 -50 3 -16 12 -59 20 -95 26 -108 27
-124 7 -142 -16 -14 -462 -168 -486 -168 -5 0 -30 15 -56 34 -64 47 -139 69
-203 62 -111 -14 -196 -75 -241 -175 -16 -34 -22 -65 -21 -121 0 -64 4 -83 29
-129 84 -153 277 -200 420 -101 40 28 101 100 104 125 3 21 24 81 33 92 5 7
114 47 242 89 265 88 276 89 303 21 32 -83 161 -324 222 -415 34 -52 61 -101
59 -110 -3 -14 -16 -17 -73 -17 -48 -1 -81 -7 -105 -19 -52 -27 -98 -84 -106
-131 -3 -22 -8 -48 -10 -57 -10 -55 41 -142 108 -185 51 -31 135 -35 192 -8
72 35 134 137 123 205 -10 59 14 45 140 -80 71 -69 164 -154 208 -189 44 -34
87 -68 95 -74 23 -19 152 -103 177 -116 27 -14 53 -61 53 -96 0 -31 -185 -403
-213 -427 -11 -10 -36 -20 -56 -24 -148 -26 -262 -148 -262 -281 -2 -178 132
-307 306 -299 142 7 251 113 270 262 6 41 2 63 -21 125 -15 40 -28 90 -28 109
0 42 172 393 210 428 35 31 71 28 204 -19 135 -48 187 -63 334 -95 60 -14 113
-27 118 -30 12 -8 10 -52 -4 -63 -7 -6 -28 -23 -47 -38 -19 -15 -43 -47 -54
-71 -68 -155 57 -322 222 -297 56 8 88 24 123 62 77 82 75 206 -5 297 -19 22
-23 34 -18 55 l7 26 140 1 c137 0 335 11 364 19 8 3 36 7 61 9 26 3 99 17 163
31 166 37 151 51 242 -225 41 -124 76 -235 78 -247 3 -14 -8 -37 -29 -65 -89
-116 -85 -271 10 -371 144 -153 371 -126 470 54 23 43 30 68 32 123 4 141 -77
252 -214 292 -29 8 -57 24 -63 33 -12 23 -149 438 -154 466 -6 36 12 52 101
90 82 34 242 114 253 125 3 3 21 14 40 24 19 11 68 41 108 67 41 26 79 46 86
43 23 -9 34 -40 27 -79 -9 -52 9 -133 39 -173 32 -44 112 -82 169 -82 86 1
163 55 199 140 17 42 11 123 -12 169 -32 62 -110 112 -176 113 -44 0 -53 5
-68 35 -11 19 -6 27 50 80 163 153 296 309 405 475 68 103 93 128 130 128 29
0 412 -191 435 -217 10 -11 22 -43 28 -71 43 -230 303 -326 478 -177 148 127
123 376 -47 469 -91 49 -163 51 -276 6 l-80 -32 -200 100 c-110 56 -210 110
-222 122 -28 25 -30 71 -7 126 55 129 140 425 143 496 1 25 28 47 50 41 10 -2
31 -22 47 -43 38 -51 90 -79 156 -84 159 -12 272 149 207 293 -57 128 -232
167 -331 74 -36 -34 -77 -39 -87 -10 -5 12 -7 25 -4 30 5 9 4 292 -2 362 -8
102 -38 295 -50 326 -11 29 -13 104 -3 124 26 51 53 65 248 129 207 69 230 72
281 36 201 -144 472 -12 472 230 0 213 -230 353 -422 255 -69 -34 -151 -138
-151 -189 0 -8 -12 -27 -27 -41 -35 -34 -379 -153 -434 -150 -63 2 -82 24
-162 187 -64 131 -119 226 -201 350 -17 26 -17 27 2 46 16 16 27 18 69 12 69
-9 129 11 177 57 44 43 56 69 63 139 13 127 -107 238 -237 219 -105 -16 -174
-91 -184 -199 -2 -23 -4 -44 -5 -48 -1 -4 -10 -10 -21 -13 -16 -5 -43 17 -138
112 -137 139 -234 221 -388 326 -61 42 -120 89 -130 104 -23 36 -23 108 0 154
10 18 44 86 76 150 77 153 99 174 222 219 78 29 149 95 178 165 28 70 25 177
-8 240 -73 142 -244 200 -384 132 -92 -45 -140 -105 -163 -202 -14 -59 -11
-87 17 -177 31 -99 23 -134 -66 -311 -121 -239 -132 -244 -353 -168 -129 43
-214 67 -304 85 -13 2 -43 9 -66 14 -23 5 -44 7 -48 4 -3 -3 -5 4 -5 15 0 11
11 26 25 33 13 7 36 30 50 50 129 186 -68 411 -270 308 -126 -64 -153 -226
-55 -332 l38 -41 -177 0 c-156 0 -286 -7 -346 -19 -11 -2 -42 -7 -70 -10 -27
-4 -79 -13 -115 -21 -36 -8 -78 -16 -95 -18 -38 -5 -97 24 -119 58 -22 33
-133 376 -131 404 1 11 21 58 44 104 49 95 55 150 25 242 -20 65 -88 139 -154
168 -62 29 -160 31 -227 6z"/>
</g>
</svg>
